# xmcd CD database file
#
# Track frame offsets:
#	150
#	14383
#	30341
#	53904
#	82420
#	99716
#	123265
#	139276
#	165216
#	190683
#	208910
#
# Disc length: 3033 seconds
#
# Revision: 0
# Processed by: cddbd v1.5.2PL0 Copyright (c) Steve Scherf et al.
# Submitted via: CDex 1.51
#
DISCID=920bd70b
DTITLE=Knucklebones - Knucklebones
DYEAR=2010
DGENRE=Blues
TTITLE0=Salesman'Blues
TTITLE1=Dealing With The Devil
TTITLE2=Redhouse Blues
TTITLE3=Calling Card
TTITLE4=Bacon Fat
TTITLE5=Need Your Love So Bad
TTITLE6=Shoow Me The Money
TTITLE7=Riviera Paradise
TTITLE8=You Can't Alwayss Get What You Want
TTITLE9=Summertime
TTITLE10=Stormy Monday Blues
EXTD=YEAR: 2010
EXTT0=
EXTT1=
EXTT2=
EXTT3=
EXTT4=
EXTT5=
EXTT6=
EXTT7=
EXTT8=
EXTT9=
EXTT10=
PLAYORDER=
